<svg preserveAspectRatio="none" overflow="visible" style="display: block;" width="18" height="18" viewBox="0 0 18 18" fill="none" xmlns="http://www.w3.org/2000/svg">
<g id="mdi-light:email">
<path id="Vector" d="M4.25 3H14C14.5967 3 15.169 3.23705 15.591 3.65901C16.0129 4.08097 16.25 4.65326 16.25 5.25V12C16.25 12.5967 16.0129 13.169 15.591 13.591C15.169 14.0129 14.5967 14.25 14 14.25H4.25C3.65326 14.25 3.08097 14.0129 2.65901 13.591C2.23705 13.169 2 12.5967 2 12V5.25C2 4.65326 2.23705 4.08097 2.65901 3.65901C3.08097 3.23705 3.65326 3 4.25 3ZM4.25 3.75C3.875 3.75 3.545 3.8775 3.29 4.1025L9.125 7.875L14.96 4.1025C14.705 3.8775 14.375 3.75 14 3.75H4.25ZM9.125 8.7825L2.8475 4.71C2.7875 4.875 2.75 5.0625 2.75 5.25V12C2.75 12.3978 2.90804 12.7794 3.18934 13.0607C3.47064 13.342 3.85218 13.5 4.25 13.5H14C14.3978 13.5 14.7794 13.342 15.0607 13.0607C15.342 12.7794 15.5 12.3978 15.5 12V5.25C15.5 5.0625 15.4625 4.875 15.4025 4.71L9.125 8.7825Z" fill="#FD8625"/>
</g>
</svg>
