<svg preserveAspectRatio="none" overflow="visible" style="display: block;" width="19" height="19" viewBox="0 0 19 19" fill="none" xmlns="http://www.w3.org/2000/svg">
<g id="akar-icons:radio">
<path id="Vector" d="M2.375 9.5C2.375 8.56433 2.55929 7.63783 2.91736 6.77338C3.27542 5.90894 3.80025 5.12348 4.46186 4.46186C5.12348 3.80025 5.90894 3.27542 6.77338 2.91736C7.63783 2.55929 8.56433 2.375 9.5 2.375C10.4357 2.375 11.3622 2.55929 12.2266 2.91736C13.0911 3.27542 13.8765 3.80025 14.5381 4.46186C15.1998 5.12348 15.7246 5.90894 16.0826 6.77338C16.4407 7.63783 16.625 8.56433 16.625 9.5C16.625 11.3897 15.8743 13.2019 14.5381 14.5381C13.2019 15.8743 11.3897 16.625 9.5 16.625C7.61033 16.625 5.79806 15.8743 4.46186 14.5381C3.12567 13.2019 2.375 11.3897 2.375 9.5Z" stroke="#666666" stroke-width="1.17" stroke-linecap="round" stroke-linejoin="round"/>
</g>
</svg>
