<svg preserveAspectRatio="none" overflow="visible" style="display: block;" width="23.9399" height="23.9399" viewBox="0 0 23.9399 23.9399" fill="none" xmlns="http://www.w3.org/2000/svg">
<g id="Group">
<path id="Vector" fill-rule="evenodd" clip-rule="evenodd" d="M0 2.78474e-08H23.9399V23.9399H0V2.78474e-08Z" fill="#FF4F00"/>
<path id="Vector_2" fill-rule="evenodd" clip-rule="evenodd" d="M23.9399 11.97C23.9399 18.5764 18.5764 23.9399 11.97 23.9399C5.36356 23.9399 0 18.5764 0 11.97C0 5.36356 5.36361 2.78474e-08 11.97 2.78474e-08C18.5764 2.78474e-08 23.9399 5.36356 23.9399 11.97Z" fill="#FF4F00"/>
<path id="Vector_3" d="M3.368 13.1886L3.36459 13.1778L5.52296 11.2019V10.2498H2.06025V11.2019H4.12853L4.13194 11.211L1.99471 13.1886V14.1407H5.55775V13.1886H3.368ZM7.68299 10.1594C7.28358 10.1594 6.95806 10.2196 6.70642 10.3401C6.47204 10.4451 6.27462 10.6181 6.13976 10.8367C6.01072 11.0566 5.9297 11.3014 5.90203 11.555L6.95272 11.7026C6.99074 11.4788 7.06673 11.3201 7.18074 11.2266C7.31037 11.1288 7.47008 11.0794 7.63227 11.0869C7.84548 11.0869 8.00016 11.144 8.09631 11.258C8.19157 11.372 8.23995 11.5299 8.23995 11.738V11.8417H7.22976C6.71553 11.8417 6.34615 11.9557 6.12149 12.1838C5.89692 12.4118 5.78483 12.7128 5.78515 13.0868C5.78515 13.4699 5.89728 13.755 6.12153 13.9419C6.34579 14.1289 6.62773 14.2219 6.96757 14.2208C7.38902 14.2208 7.71324 14.0757 7.94011 13.7858C8.07412 13.6076 8.16982 13.4036 8.22119 13.1866H8.25934L8.4042 14.1387H9.35626V11.7277C9.35626 11.2295 9.22492 10.8435 8.96228 10.5698C8.69969 10.2962 8.27326 10.1594 7.68299 10.1594ZM8.01596 13.1313C7.86483 13.2573 7.66701 13.32 7.42076 13.32C7.21778 13.32 7.07678 13.2845 6.99774 13.2134C6.95921 13.1797 6.92857 13.1381 6.90798 13.0913C6.88739 13.0445 6.87736 12.9937 6.87861 12.9426C6.87635 12.8944 6.88393 12.8462 6.90089 12.801C6.91786 12.7558 6.94384 12.7146 6.97727 12.6798C7.01338 12.6459 7.056 12.6197 7.10254 12.6027C7.14908 12.5858 7.19857 12.5784 7.24803 12.5812H8.24171V12.6467C8.2437 12.7394 8.22437 12.8313 8.18523 12.9153C8.14608 12.9993 8.0882 13.0732 8.01596 13.1313ZM13.9865 10.2497H15.1112V14.1413H13.9865V10.2497ZM21.7566 10.2497C21.4389 10.2497 21.1885 10.362 21.0053 10.5861C20.8738 10.7473 20.7738 10.9854 20.7054 11.3005H20.6724L20.5253 10.2497H19.5646V14.1407H20.6895V12.1453C20.6895 11.8937 20.7483 11.7009 20.8662 11.5667C20.984 11.4325 21.2014 11.3655 21.5184 11.3655H21.9453V10.2497H21.7566ZM18.4447 10.3767C18.182 10.2205 17.8508 10.1426 17.451 10.143C16.8216 10.143 16.3291 10.3222 15.9734 10.6806C15.6176 11.039 15.4397 11.5331 15.4397 12.1628C15.4307 12.5436 15.5138 12.9208 15.682 13.2626C15.836 13.567 16.0758 13.8197 16.3718 13.9894C16.6698 14.1616 17.0242 14.2479 17.4351 14.2482C17.7904 14.2482 18.0872 14.1935 18.3255 14.084C18.5496 13.9857 18.7447 13.8317 18.8922 13.6365C19.0327 13.4449 19.1371 13.2293 19.2001 13.0003L18.2309 12.7289C18.1901 12.8779 18.1116 13.0138 18.0028 13.1235C17.8934 13.2329 17.71 13.2876 17.4527 13.2876C17.1468 13.2876 16.9187 13.2 16.7686 13.0248C16.6597 12.8982 16.5913 12.7176 16.5611 12.4833H19.2149C19.2257 12.3738 19.2314 12.282 19.2314 12.2079V11.9656C19.2378 11.6401 19.1706 11.3173 19.0347 11.0215C18.9076 10.7519 18.7019 10.5272 18.4447 10.3767ZM17.4185 11.0706C17.8746 11.0706 18.1332 11.2949 18.1944 11.7438H16.581C16.6067 11.594 16.6687 11.4529 16.7618 11.3327C16.9096 11.1576 17.1285 11.0702 17.4185 11.0706ZM14.5623 8.6816C14.4776 8.67869 14.3933 8.69283 14.3143 8.72319C14.2352 8.75355 14.1631 8.79951 14.1022 8.85832C14.0421 8.91768 13.995 8.98887 13.9639 9.06739C13.9328 9.1459 13.9183 9.23003 13.9214 9.31443C13.9184 9.39936 13.9329 9.48401 13.964 9.5631C14.0109 9.68227 14.0937 9.78395 14.2008 9.85409C14.308 9.92423 14.4343 9.95939 14.5623 9.9547C14.6467 9.95787 14.7308 9.94344 14.8093 9.91232C14.8879 9.8812 14.9591 9.83407 15.0184 9.77394C15.0772 9.71317 15.1231 9.64114 15.1534 9.56217C15.1837 9.48321 15.1977 9.39894 15.1946 9.31443C15.1984 9.2304 15.1847 9.14649 15.1544 9.06805C15.124 8.9896 15.0776 8.91835 15.0182 8.85882C14.9587 8.79934 14.8876 8.75293 14.8091 8.72254C14.7306 8.6919 14.6465 8.67796 14.5623 8.6816ZM12.2385 10.143C11.8554 10.143 11.5476 10.2633 11.315 10.5038C11.1429 10.6821 11.0165 10.9482 10.9359 11.302H10.9L10.7529 10.2513H9.7923V15.2591H10.9171V13.1965H10.9581C10.9925 13.334 11.0406 13.4677 11.1018 13.5955C11.197 13.8037 11.353 13.9782 11.5493 14.096C11.7529 14.2071 11.9822 14.2624 12.2141 14.2562C12.6849 14.2562 13.0435 14.0729 13.2898 13.7061C13.5361 13.3394 13.6592 12.8276 13.6592 12.1709C13.6592 11.5365 13.5401 11.0399 13.3018 10.6812C13.0635 10.3224 12.7091 10.143 12.2385 10.143ZM12.3526 12.9627C12.2215 13.1527 12.0162 13.2477 11.7369 13.2477C11.6217 13.253 11.5069 13.2308 11.402 13.1829C11.2971 13.135 11.2052 13.0629 11.1337 12.9724C10.9881 12.7896 10.9156 12.5393 10.916 12.2215V12.1475C10.916 11.8248 10.9885 11.5777 11.1337 11.4063C11.2789 11.2349 11.4799 11.1501 11.7369 11.1521C12.0211 11.1521 12.2277 11.2423 12.3565 11.4228C12.4854 11.6034 12.5498 11.8552 12.5498 12.1782C12.5506 12.5123 12.4852 12.7738 12.3538 12.9627H12.3526Z" fill="#FFFDF9"/>
</g>
</svg>
